<svg height="480pt" viewBox="0 -4 480 480" width="480pt" xmlns="http://www.w3.org/2000/svg"><path d="m344 464.648438h-208l16.335938-261.390626h175.328124zm0 0" fill="#ac2022"/><path d="m240 104.648438c48.601562 0 88 39.398437 88 88v16h-176v-16c0-48.601563 39.398438-88 88-88zm0 0" fill="#2bb3ce"/><path d="m254.054688 152.488281-11.488282-11.140625 28.746094-28.746094 11.199219 11.433594zm0 0" fill="#83d7dd"/><path d="m209.289062 197.257812-11.65625-10.96875 28.367188-28.375 11.160156 11.464844zm0 0" fill="#83d7dd"/><path d="m225.945312 152.488281-28.3125-28.320312 11.054688-11.566407 28.472656 28.480469zm0 0" fill="#83d7dd"/><path d="m272 198.546875-29.433594-29.433594 11.433594-11.199219 29.609375 29.617188zm0 0" fill="#83d7dd"/><path d="m240 384.648438c17.671875 0 32 14.328124 32 32v48h-64v-48c0-17.671876 14.328125-32 32-32zm0 0" fill="#dd9e25"/><path d="m272 288.648438c0 17.675781-14.328125 32-32 32s-32-14.324219-32-32c0-17.671876 14.328125-32 32-32s32 14.328124 32 32zm0 0" fill="#83d7dd"/><path d="m270.871094 280.648438h-22.871094v-22.871094c-5.226562-1.503906-10.773438-1.503906-16 0v22.871094h-22.871094c-1.503906 5.230468-1.503906 10.773437 0 16h22.871094v22.875c5.226562 1.503906 10.773438 1.503906 16 0v-22.875h22.871094c1.503906-5.226563 1.503906-10.769532 0-16zm0 0" fill="#a75b25"/><path d="m112 456.648438h256v16h-256zm0 0" fill="#6da024"/><g fill="#cc1b24"><path d="m176 424.648438h-37.503906l-1 16h38.503906zm0 0"/><path d="m304 424.648438h37.496094l-1-16h-36.496094zm0 0"/><path d="m176 352.648438h-33l-1 16h34zm0 0"/><path d="m176 336.648438h24v16h-24zm0 0"/><path d="m304 376.648438h34.496094l-1-16h-33.496094zm0 0"/><path d="m272 344.648438h32v16h-32zm0 0"/></g><path d="m96 400.648438h-16v16h-16v-16h-16v16h-16v-16h-16v16h-16v16h16v40h16v-40h16v40h16v-40h16v40h16v-40h16v-16h-16zm0 0" fill="#a75b25"/><path d="m480 416.648438h-16v-16h-16v16h-16v-16h-16v16h-16v-16h-16v16h-16v16h16v40h16v-40h16v40h16v-40h16v40h16v-40h16zm0 0" fill="#a75b25"/><path d="m189.089844 172.191406 33.941406 33.941406-100.773438 100.773438-33.941406-33.941406zm0 0" fill="#f7ce49"/><path d="m84.761719 33.941406 33.941406-33.941406 104.320313 104.316406-33.941407 33.941406zm0 0" fill="#f7ce49"/><path d="m256.96875 206.144531 33.941406-33.941406 101.738282 101.738281-33.941407 33.941406zm0 0" fill="#f7ce49"/><path d="m360.316406.972656 33.941406 33.941406-103.351562 103.351563-33.941406-33.941406zm0 0" fill="#f7ce49"/><path d="m256 155.226562c0 8.835938-7.164062 16-16 16s-16-7.164062-16-16c0-8.835937 7.164062-16 16-16s16 7.164063 16 16zm0 0" fill="#62cedd"/></svg>